<svg xmlns="http://www.w3.org/2000/svg" viewBox="0 0 24 24" fill="none" stroke="currentColor" stroke-width="2" stroke-linecap="round" stroke-linejoin="round" aria-hidden="true">
  <path d="M5 8c-1.4-1-2.2-2.7-2-4.5 2 .3 3.6 1.5 4.5 3.2"/>
  <path d="M19 8c1.4-1 2.2-2.7 2-4.5-2 .3-3.6 1.5-4.5 3.2"/>
  <path d="M7 9c0-2.8 2.2-5 5-5s5 2.2 5 5v4.5c0 3.1-2.5 5.5-5.5 5.5h-1c-3.1 0-5.5-2.4-5.5-5.5V9z"/>
  <path d="M9 13c.7.6 1.7 1 3 1s2.3-.4 3-1"/>
  <path d="M10 17h4"/>
  <circle cx="9" cy="10.5" r=".6" fill="currentColor" stroke="none"/>
  <circle cx="15" cy="10.5" r=".6" fill="currentColor" stroke="none"/>
</svg>
